<?xml version="1.0" encoding="utf-8"?>
<!-- Generator: Adobe Illustrator 24.0.0, SVG Export Plug-In . SVG Version: 6.00 Build 0)  -->
<svg version="1.1" id="Layer_1" xmlns="http://www.w3.org/2000/svg" xmlns:xlink="http://www.w3.org/1999/xlink" x="0px" y="0px"
	 viewBox="0 0 1670 810" style="enable-background:new 0 0 1670 810;" xml:space="preserve">
<style type="text/css">
	.st0{fill:#237C6E;}
	.st1{fill:#6CAB36;}
	.st2{fill:#FFC03B;}
</style>
<g>
	<path class="st0" d="M755.2,56.7c0,0,6.4,0,4.6-6.4c-1.8-6.4-70.6-22-133,56C626.7,106.3,699.2,32.9,755.2,56.7z"/>
	<path class="st0" d="M730.4,80.6c-3-0.4-6.1-0.3-9.1,0.1c-1.2,0.2-2.5,0.5-3.8,0.8c-21.4,5-43.2,26.8-53.5,43
		c-0.7,1.1-1.3,2.2-1.9,3.2c-13.2,24.6,19.1,22,35.3,15.3c16.1-6.6,31.9-22,39.6-35.9c1.3-2.3,2.3-4.7,3.2-6.9c1-2.9,1.6-5.6,1.6-8
		c0-6.1-3.2-10.5-11.1-11.5C730.5,80.7,730.4,80.6,730.4,80.6z"/>
	<path class="st0" d="M700.5,196.1c-11.9,10.5-25.8,21.2-41.7,32c-82.6,55.7-160.7,114.5-172.5,167.4
		c-11.4,50.8-35,156.7-114.2,206.7C334.3,626,290,635,252.4,628.5c8.4,10.7,20.2,25.4,28.7,33.3c14.3,13.4,36.4,40.6,32.7,22.7
		c-3.7-17.9-38.2-32.5-38.2-32.5s15.5,1.6,39.3,21.5c23.8,19.9,20.6,51,6.4,55.1c-14.2,4.1-23.8-19.9-33.6-41.2
		c-7.2-15.5-30.9-45.4-43.3-60.5c-12.4-3-23.9-7.7-34-14.3c-29.2-19.2-41.9-51.6-35.7-91.2c14-89.4,130.6-123.5,193.1-141.8
		c12.2-3.5,21.8-6.4,27.7-8.8c36.7-14.9,58.1-30.7,123.5-128c41.5-61.7,74.9-102.1,101.4-128.6c-61.5-45.9-137.7-73-220.3-73
		C196.5,41.2,31.4,206.3,31.4,410s165.1,368.7,368.7,368.7S768.9,613.6,768.9,410C768.9,330.2,743.5,256.4,700.5,196.1z M341,137.2
		c24.3-36.9,29.9-47.7,30.8-50.6c-0.4-0.5-0.6-0.8-0.6-0.8s1.2-1,0.6,0.8c6.5,8.1,62,80.3,40.7,158.3
		c-22.5,82.7-71.7,110.4-71.7,110.4l9.3-110.3C313.7,317.8,317,385.1,317,385.1C245.4,233.2,302.5,195.7,341,137.2z M118.3,366.7
		c-24.9-14.3-32.1-17.5-34.1-18c-0.3,0.3-0.5,0.4-0.5,0.4s-0.6-0.7,0.5-0.4c5.3-4.3,52.3-41.1,104.4-29.8c55.2,11.9,74.3,42,74.3,42
		l-73.3-2.9c48.9,20.9,93.5,17,93.5,17C183.5,424.2,157.7,389.3,118.3,366.7z M679,572.2c0,0,75.2-142.6,1.8-271
		c0,0,1.8-11.3,18.4-11.3s77.1,151.6-12.9,282.3H679z"/>
	<path class="st1" d="M83.8,349.2c0,0,0.2-0.2,0.5-0.4C83.1,348.6,83.8,349.2,83.8,349.2z"/>
	<path class="st1" d="M371.1,85.7c0,0,0.3,0.3,0.6,0.8C372.3,84.8,371.1,85.7,371.1,85.7z"/>
	<path class="st2" d="M277.5,453c-62.7,38.3-96.9,97.3-78.8,133.9c0.6,1.2,1.2,2.3,1.9,3.5c8,13.1,22.3,21,40.3,24.1
		c31.9,5.5,75.7-4.7,117.1-30c64.7-39.6,99.1-101.1,76.9-137.3C412.5,410.9,342.1,413.5,277.5,453z"/>
	<path class="st2" d="M321.3,728.7c14.3-4.1,17.4-35.1-6.4-55.1s-39.3-21.5-39.3-21.5s34.5,14.6,38.2,32.5
		c3.7,17.9-18.4-9.3-32.7-22.7c-8.4-7.9-20.3-22.6-28.7-33.3c-2.7-0.5-5.4-1-8-1.6c12.4,15.1,36.1,45,43.3,60.5
		C297.5,708.7,307,732.8,321.3,728.7z"/>
</g>
<g>
	<path d="M885.7,335.2c0-1.3,0.4-2.3,1.1-3.1c0.7-0.7,1.6-1.1,2.6-1.2h89c1.4,0,2.5,0.4,3.2,1.2c0.7,0.8,1.1,1.9,1.1,3.2v23
		c0,1.1-0.4,2.1-1.1,3c-0.7,1-1.8,1.4-3.3,1.4h-56.5v28.8h41.8c1.2,0,2.2,0.3,3,1c0.8,0.7,1.2,1.7,1.2,3.1V418c0,1.1-0.4,2.1-1.1,3
		c-0.7,1-1.7,1.4-2.9,1.4h-41.9V465c0,2.7-1.4,4-4.3,4h-28.4c-2.2-0.3-3.3-1.6-3.3-3.9V335.2z"/>
	<path d="M999.2,400.1c0-6.6,0.8-12.9,2.5-18.9c1.7-6,4.1-11.7,7.2-17s6.8-10.1,11.1-14.5c4.3-4.3,9.1-8,14.4-11.1
		c5.3-3.1,10.9-5.5,17-7.2c6-1.7,12.4-2.6,18.9-2.6c6.5,0,12.8,0.9,18.9,2.6c6.1,1.7,11.8,4.1,17,7.2c5.3,3.1,10.1,6.8,14.4,11.1
		c4.3,4.3,8,9.2,11.1,14.5c3.1,5.3,5.5,11,7.2,17s2.6,12.4,2.6,18.9c0,6.6-0.9,12.9-2.6,18.9s-4.1,11.7-7.2,16.9
		c-3.1,5.2-6.8,10-11.1,14.3c-4.3,4.3-9.2,8-14.4,11.1c-5.3,3.1-11,5.5-17,7.2s-12.4,2.5-18.9,2.5c-6.6,0-12.9-0.8-18.9-2.5
		c-6-1.7-11.7-4.1-17-7.2c-5.3-3.1-10.1-6.8-14.4-11.1c-4.3-4.3-8-9.1-11.1-14.3c-3.1-5.2-5.5-10.9-7.2-16.9
		C1000,413,999.2,406.7,999.2,400.1z M1035.2,400c0,5.1,0.9,10,2.6,14.4s4.2,8.4,7.3,11.7c3.1,3.3,6.8,5.9,11.1,7.8
		c4.3,1.9,9,2.8,14.1,2.8c5.1,0,9.9-0.9,14.2-2.8c4.3-1.9,8-4.5,11.1-7.8c3.1-3.3,5.6-7.2,7.3-11.7s2.6-9.3,2.6-14.4
		c0-5.1-0.9-9.9-2.6-14.4c-1.7-4.5-4.2-8.4-7.3-11.8s-6.8-6-11.1-7.9c-4.3-1.9-9-2.9-14.2-2.9c-5.1,0-9.8,1-14.1,2.9
		c-4.3,1.9-8,4.6-11.1,7.9s-5.6,7.3-7.3,11.8C1036,390.1,1035.2,394.9,1035.2,400z"/>
	<path d="M1157.7,400.1c0-6.6,0.8-12.9,2.5-18.9c1.7-6,4.1-11.7,7.2-17s6.8-10.1,11.1-14.5c4.3-4.3,9.1-8,14.4-11.1
		c5.3-3.1,10.9-5.5,17-7.2c6-1.7,12.4-2.6,18.9-2.6c6.5,0,12.8,0.9,18.9,2.6c6.1,1.7,11.8,4.1,17,7.2c5.3,3.1,10.1,6.8,14.4,11.1
		c4.3,4.3,8,9.2,11.1,14.5c3.1,5.3,5.5,11,7.2,17s2.6,12.4,2.6,18.9c0,6.6-0.9,12.9-2.6,18.9s-4.1,11.7-7.2,16.9
		c-3.1,5.2-6.8,10-11.1,14.3c-4.3,4.3-9.2,8-14.4,11.1c-5.3,3.1-11,5.5-17,7.2s-12.4,2.5-18.9,2.5c-6.6,0-12.9-0.8-18.9-2.5
		c-6-1.7-11.7-4.1-17-7.2c-5.3-3.1-10.1-6.8-14.4-11.1c-4.3-4.3-8-9.1-11.1-14.3c-3.1-5.2-5.5-10.9-7.2-16.9
		C1158.6,413,1157.7,406.7,1157.7,400.1z M1193.7,400c0,5.1,0.9,10,2.6,14.4s4.2,8.4,7.3,11.7c3.1,3.3,6.8,5.9,11.1,7.8
		c4.3,1.9,9,2.8,14.1,2.8c5.1,0,9.9-0.9,14.2-2.8c4.3-1.9,8-4.5,11.1-7.8c3.1-3.3,5.6-7.2,7.3-11.7s2.6-9.3,2.6-14.4
		c0-5.1-0.9-9.9-2.6-14.4c-1.7-4.5-4.2-8.4-7.3-11.8s-6.8-6-11.1-7.9c-4.3-1.9-9-2.9-14.2-2.9c-5.1,0-9.8,1-14.1,2.9
		c-4.3,1.9-8,4.6-11.1,7.9s-5.6,7.3-7.3,11.8C1194.6,390.1,1193.7,394.9,1193.7,400z"/>
	<path d="M1442.3,400.1c0,6.6-0.8,12.8-2.5,18.7c-1.7,5.9-4.1,11.4-7.2,16.6c-3.1,5.1-6.8,9.8-11.1,13.9c-4.3,4.2-9.1,7.7-14.3,10.6
		c-5.2,2.9-10.9,5.2-17,6.7c-6.1,1.6-12.4,2.4-18.9,2.4h-45.8c-1.1,0-2.1-0.2-3-0.7c-0.9-0.5-1.3-1.5-1.3-3.2V335.2
		c0-1.3,0.4-2.4,1.1-3.2c0.7-0.8,1.8-1.2,3.2-1.2h45.8c6.5,0,12.8,0.8,18.8,2.4s11.7,3.9,16.9,6.9c5.2,3,10,6.5,14.4,10.7
		c4.3,4.2,8,8.8,11.1,14c3.1,5.1,5.5,10.7,7.2,16.6C1441.5,387.4,1442.3,393.6,1442.3,400.1z M1357.2,364.2v71.5h7.8
		c1.4,0,2.8,0,4.2-0.1c1.4-0.1,2.7-0.2,4.1-0.3c4.6-0.4,9-1.5,13-3.4c4-1.9,7.5-4.4,10.6-7.4c3-3.1,5.4-6.7,7.1-10.8
		c1.7-4.2,2.6-8.7,2.6-13.6c0-5.2-1-10-2.9-14.4c-2-4.4-4.6-8.2-8-11.3c-3.3-3.2-7.3-5.7-11.8-7.4c-4.5-1.8-9.3-2.7-14.4-2.7H1357.2
		z"/>
	<path d="M1467,335c0-1.1,0.3-2.1,1-2.9c0.7-0.8,1.7-1.2,3.1-1.2h27.3c0.9,0,1.9,0.4,3,1.1c1.1,0.7,1.6,1.7,1.6,3v129.9
		c0,2.7-1.5,4.1-4.6,4.1h-27.3c-2.7,0-4.1-1.4-4.1-4.1V335z"/>
	<path d="M1532.9,335.2c0-1.3,0.4-2.3,1.1-3.1c0.7-0.8,1.7-1.2,3-1.2h92.3c1.4,0,2.4,0.4,3.2,1.2c0.7,0.8,1.1,1.9,1.1,3.2v23
		c0,1.1-0.4,2.1-1.1,3c-0.7,1-1.8,1.4-3.3,1.4h-60.3v23.1h46.5c1.2,0,2.2,0.3,2.9,0.8c0.8,0.6,1.2,1.5,1.2,2.8v20.1
		c0,0.9-0.3,1.7-1,2.5c-0.7,0.8-1.7,1.2-3,1.2h-46.6v23.8h62.5c2.8,0,4.2,1.4,4.2,4.3v23.4c0,0.6-0.2,1.2-0.7,1.7
		c-0.2,1.7-1.5,2.6-3.8,2.6h-94c-1.2,0-2.2-0.3-3-1c-0.7-0.7-1.1-1.7-1.1-3V335.2z"/>
</g>
</svg>
